<?xml version="1.0" encoding="UTF-8"?>
<!DOCTYPE svg PUBLIC "-//W3C//DTD SVG 1.1//EN" "http://www.w3.org/Graphics/SVG/1.1/DTD/svg11.dtd">
<svg xmlns="http://www.w3.org/2000/svg" version="1.1" width="485px" height="522px" style="shape-rendering:geometricPrecision; text-rendering:geometricPrecision; image-rendering:optimizeQuality; fill-rule:evenodd; clip-rule:evenodd" xmlns:xlink="http://www.w3.org/1999/xlink">
<g><path style="opacity:0.532" fill="#0027df" d="M 237.5,127.5 C 244.445,125.775 249.278,128.108 252,134.5C 252.173,138.541 252.673,142.541 253.5,146.5C 284.5,159.667 315.5,172.833 346.5,186C 352.787,190.072 355.787,195.906 355.5,203.5C 351.021,257.79 332.854,306.79 301,350.5C 288.208,365.795 273.374,378.628 256.5,389C 252.023,391.824 247.19,393.657 242,394.5C 236.138,393.321 230.638,391.155 225.5,388C 191.751,366.708 167.251,337.542 152,300.5C 138.75,269.667 130.917,237.5 128.5,204C 128.063,196.206 131.063,190.206 137.5,186C 168.5,172.833 199.5,159.667 230.5,146.5C 231.184,141.792 232.018,137.126 233,132.5C 234.193,130.503 235.693,128.836 237.5,127.5 Z M 229.5,176.5 C 231.369,178.635 232.036,181.302 231.5,184.5C 209.635,193.097 187.968,202.263 166.5,212C 163.482,215.04 162.148,218.706 162.5,223C 164.583,260.925 176.75,295.092 199,325.5C 209.083,337.595 220.916,347.429 234.5,355C 240.287,357.122 245.953,356.789 251.5,354C 276.521,338.972 294.354,317.805 305,290.5C 315.065,267.174 320.398,242.84 321,217.5C 320.117,214.898 318.617,212.731 316.5,211C 295.333,201.669 273.999,192.836 252.5,184.5C 252.187,181.753 252.52,179.086 253.5,176.5C 275.616,185.725 297.616,195.225 319.5,205C 327.879,211.471 330.713,219.971 328,230.5C 324.077,265.948 312.077,298.281 292,327.5C 282.381,339.456 271.215,349.623 258.5,358C 254.055,360.557 249.389,362.557 244.5,364C 241.442,364.458 238.442,364.124 235.5,363C 205.992,347.49 184.825,324.324 172,293.5C 160.6,267.925 155.6,241.258 157,213.5C 158.922,210.157 161.422,207.323 164.5,205C 186.256,195.449 207.923,185.949 229.5,176.5 Z M 230.5,218.5 C 231.8,221.024 231.8,223.691 230.5,226.5C 221.049,230.392 211.715,234.559 202.5,239C 199.911,265.558 208.245,288.224 227.5,307C 230.833,309.333 234.167,311.667 237.5,314C 242.111,315.007 246.445,314.34 250.5,312C 261.582,304.244 269.749,294.077 275,281.5C 279.487,269.717 282.321,257.55 283.5,245C 283.458,243.033 282.958,241.199 282,239.5C 272.694,234.764 263.194,230.431 253.5,226.5C 252.348,223.894 252.182,221.227 253,218.5C 263.995,222.913 274.829,227.746 285.5,233C 290.202,237.922 291.702,243.755 290,250.5C 287.83,272.366 279.83,291.699 266,308.5C 259.383,315.477 251.383,320.144 242,322.5C 223.136,315.305 209.803,302.305 202,283.5C 196.37,269.684 193.703,255.351 194,240.5C 194.731,238.101 195.898,235.935 197.5,234C 208.525,228.722 219.525,223.556 230.5,218.5 Z"/></g>
</svg>
